<svg xmlns="http://www.w3.org/dx00/svg" version="1.1" height="500">
<rect width="10" height="10" x="70" y="10" style="fill:greenyellow"></rect>
<rect width="10" height="10" x="80" y="10" style="fill:greenyellow"></rect>
<rect width="10" height="10" x="60" y="20" style="fill:greenyellow"></rect>
<rect width="10" height="10" x="70" y="20" style="fill:greenyellow"></rect>
<rect width="10" height="10" x="80" y="20" style="fill:greenyellow"></rect>
<rect width="10" height="10" x="90" y="20" style="fill:greenyellow"></rect>
<rect width="10" height="10" x="50" y="30" style="fill:greenyellow"></rect>
<rect width="10" height="10" x="60" y="30" style="fill:greenyellow"></rect>
<rect width="10" height="10" x="70" y="30" style="fill:orange"></rect>
<rect width="10" height="10" x="80" y="30" style="fill:#3366FF"></rect>
<rect width="10" height="10" x="90" y="30" style="fill:greenyellow"></rect>
<rect width="10" height="10" x="100" y="30" style="fill:greenyellow"></rect>
<rect width="10" height="10" x="40" y="40" style="fill:orange"></rect>
<rect width="10" height="10" x="50" y="40" style="fill:#CC0000"></rect>
<rect width="10" height="10" x="60" y="40" style="fill:#CC0000"></rect>
<rect width="10" height="10" x="70" y="40" style="fill:orange"></rect>
<rect width="10" height="10" x="80" y="40" style="fill:#3366FF"></rect>
<rect width="10" height="10" x="90" y="40" style="fill:#3366FF"></rect>
<rect width="10" height="10" x="100" y="40" style="fill:orange"></rect>
<rect width="10" height="10" x="110" y="40" style="fill:#3366FF"></rect>
<rect width="10" height="10" x="30" y="50" style="fill:orange"></rect>
<rect width="10" height="10" x="40" y="50" style="fill:orange"></rect>
<rect width="10" height="10" x="50" y="50" style="fill:greenyellow"></rect>
<rect width="10" height="10" x="60" y="50" style="fill:greenyellow"></rect>
<rect width="10" height="10" x="70" y="50" style="fill:greenyellow"></rect>
<rect width="10" height="10" x="80" y="50" style="fill:greenyellow"></rect>
<rect width="10" height="10" x="90" y="50" style="fill:#3366FF"></rect>
<rect width="10" height="10" x="100" y="50" style="fill:orange"></rect>
<rect width="10" height="10" x="110" y="50" style="fill:#3366FF"></rect>
<rect width="10" height="10" x="120" y="50" style="fill:#3366FF"></rect>
<rect width="10" height="10" x="20" y="60" style="fill:orange"></rect>
<rect width="10" height="10" x="30" y="60" style="fill:orange"></rect>
<rect width="10" height="10" x="40" y="60" style="fill:orange"></rect>
<rect width="10" height="10" x="50" y="60" style="fill:#3366FF"></rect>
<rect width="10" height="10" x="60" y="60" style="fill:greenyellow"></rect>
<rect width="10" height="10" x="70" y="60" style="fill:greenyellow"></rect>
<rect width="10" height="10" x="80" y="60" style="fill:greenyellow"></rect>
<rect width="10" height="10" x="90" y="60" style="fill:greenyellow"></rect>
<rect width="10" height="10" x="100" y="60" style="fill:greenyellow"></rect>
<rect width="10" height="10" x="110" y="60" style="fill:greenyellow"></rect>
<rect width="10" height="10" x="120" y="60" style="fill:#3366FF"></rect>
<rect width="10" height="10" x="130" y="60" style="fill:#3366FF"></rect>
<rect width="10" height="10" x="10" y="70" style="fill:orange"></rect>
<rect width="10" height="10" x="20" y="70" style="fill:orange"></rect>
<rect width="10" height="10" x="30" y="70" style="fill:orange"></rect>
<rect width="10" height="10" x="40" y="70" style="fill:orange"></rect>
<rect width="10" height="10" x="50" y="70" style="fill:#3366FF"></rect>
<rect width="10" height="10" x="60" y="70" style="fill:#CC0000"></rect>
<rect width="10" height="10" x="70" y="70" style="fill:#CC0000"></rect>
<rect width="10" height="10" x="80" y="70" style="fill:#3366FF"></rect>
<rect width="10" height="10" x="90" y="70" style="fill:greenyellow"></rect>
<rect width="10" height="10" x="100" y="70" style="fill:greenyellow"></rect>
<rect width="10" height="10" x="110" y="70" style="fill:greenyellow"></rect>
<rect width="10" height="10" x="120" y="70" style="fill:greenyellow"></rect>
<rect width="10" height="10" x="130" y="70" style="fill:#3366FF"></rect>
<rect width="10" height="10" x="140" y="70" style="fill:#3366FF"></rect>
<rect width="10" height="10" x="0" y="80" style="fill:orange"></rect>
<rect width="10" height="10" x="10" y="80" style="fill:orange"></rect>
<rect width="10" height="10" x="20" y="80" style="fill:orange"></rect>
<rect width="10" height="10" x="30" y="80" style="fill:orange"></rect>
<rect width="10" height="10" x="40" y="80" style="fill:orange"></rect>
<rect width="10" height="10" x="50" y="80" style="fill:#3366FF"></rect>
<rect width="10" height="10" x="60" y="80" style="fill:greenyellow"></rect>
<rect width="10" height="10" x="70" y="80" style="fill:greenyellow"></rect>
<rect width="10" height="10" x="80" y="80" style="fill:#3366FF"></rect>
<rect width="10" height="10" x="90" y="80" style="fill:#3366FF"></rect>
<rect width="10" height="10" x="100" y="80" style="fill:orange"></rect>
<rect width="10" height="10" x="110" y="80" style="fill:#3366FF"></rect>
<rect width="10" height="10" x="120" y="80" style="fill:orange"></rect>
<rect width="10" height="10" x="130" y="80" style="fill:#3366FF"></rect>
<rect width="10" height="10" x="140" y="80" style="fill:#3366FF"></rect>
<rect width="10" height="10" x="150" y="80" style="fill:#3366FF"></rect>
<rect width="10" height="10" x="0" y="90" style="fill:orange"></rect>
<rect width="10" height="10" x="10" y="90" style="fill:orange"></rect>
<rect width="10" height="10" x="20" y="90" style="fill:orange"></rect>
<rect width="10" height="10" x="30" y="90" style="fill:orange"></rect>
<rect width="10" height="10" x="40" y="90" style="fill:orange"></rect>
<rect width="10" height="10" x="50" y="90" style="fill:#3366FF"></rect>
<rect width="10" height="10" x="60" y="90" style="fill:#3366FF"></rect>
<rect width="10" height="10" x="70" y="90" style="fill:greenyellow"></rect>
<rect width="10" height="10" x="80" y="90" style="fill:greenyellow"></rect>
<rect width="10" height="10" x="90" y="90" style="fill:#3366FF"></rect>
<rect width="10" height="10" x="100" y="90" style="fill:orange"></rect>
<rect width="10" height="10" x="110" y="90" style="fill:#3366FF"></rect>
<rect width="10" height="10" x="120" y="90" style="fill:orange"></rect>
<rect width="10" height="10" x="130" y="90" style="fill:#3366FF"></rect>
<rect width="10" height="10" x="140" y="90" style="fill:#3366FF"></rect>
<rect width="10" height="10" x="150" y="90" style="fill:#3366FF"></rect>
<rect width="10" height="10" x="10" y="100" style="fill:orange"></rect>
<rect width="10" height="10" x="20" y="100" style="fill:orange"></rect>
<rect width="10" height="10" x="30" y="100" style="fill:orange"></rect>
<rect width="10" height="10" x="40" y="100" style="fill:orange"></rect>
<rect width="10" height="10" x="50" y="100" style="fill:#3366FF"></rect>
<rect width="10" height="10" x="60" y="100" style="fill:#3366FF"></rect>
<rect width="10" height="10" x="70" y="100" style="fill:#CC0000"></rect>
<rect width="10" height="10" x="80" y="100" style="fill:#CC0000"></rect>
<rect width="10" height="10" x="90" y="100" style="fill:#CC0000"></rect>
<rect width="10" height="10" x="100" y="100" style="fill:#CC0000"></rect>
<rect width="10" height="10" x="110" y="100" style="fill:#3366FF"></rect>
<rect width="10" height="10" x="120" y="100" style="fill:greenyellow"></rect>
<rect width="10" height="10" x="130" y="100" style="fill:greenyellow"></rect>
<rect width="10" height="10" x="140" y="100" style="fill:#3366FF"></rect>
<rect width="10" height="10" x="20" y="110" style="fill:orange"></rect>
<rect width="10" height="10" x="30" y="110" style="fill:orange"></rect>
<rect width="10" height="10" x="40" y="110" style="fill:orange"></rect>
<rect width="10" height="10" x="50" y="110" style="fill:#3366FF"></rect>
<rect width="10" height="10" x="60" y="110" style="fill:#CC0000"></rect>
<rect width="10" height="10" x="70" y="110" style="fill:#CC0000"></rect>
<rect width="10" height="10" x="80" y="110" style="fill:#3366FF"></rect>
<rect width="10" height="10" x="90" y="110" style="fill:orange"></rect>
<rect width="10" height="10" x="100" y="110" style="fill:#3366FF"></rect>
<rect width="10" height="10" x="110" y="110" style="fill:#3366FF"></rect>
<rect width="10" height="10" x="120" y="110" style="fill:#CC0000"></rect>
<rect width="10" height="10" x="130" y="110" style="fill:#CC0000"></rect>
<rect width="10" height="10" x="30" y="120" style="fill:orange"></rect>
<rect width="10" height="10" x="40" y="120" style="fill:orange"></rect>
<rect width="10" height="10" x="50" y="120" style="fill:#3366FF"></rect>
<rect width="10" height="10" x="60" y="120" style="fill:greenyellow"></rect>
<rect width="10" height="10" x="70" y="120" style="fill:greenyellow"></rect>
<rect width="10" height="10" x="80" y="120" style="fill:#3366FF"></rect>
<rect width="10" height="10" x="90" y="120" style="fill:orange"></rect>
<rect width="10" height="10" x="100" y="120" style="fill:#3366FF"></rect>
<rect width="10" height="10" x="110" y="120" style="fill:#CC0000"></rect>
<rect width="10" height="10" x="120" y="120" style="fill:#CC0000"></rect>
<rect width="10" height="10" x="40" y="130" style="fill:orange"></rect>
<rect width="10" height="10" x="50" y="130" style="fill:#3366FF"></rect>
<rect width="10" height="10" x="60" y="130" style="fill:#CC0000"></rect>
<rect width="10" height="10" x="70" y="130" style="fill:#CC0000"></rect>
<rect width="10" height="10" x="80" y="130" style="fill:#CC0000"></rect>
<rect width="10" height="10" x="90" y="130" style="fill:#CC0000"></rect>
<rect width="10" height="10" x="100" y="130" style="fill:#CC0000"></rect>
<rect width="10" height="10" x="110" y="130" style="fill:#CC0000"></rect>
<rect width="10" height="10" x="50" y="140" style="fill:#CC0000"></rect>
<rect width="10" height="10" x="60" y="140" style="fill:#CC0000"></rect>
<rect width="10" height="10" x="70" y="140" style="fill:#CC0000"></rect>
<rect width="10" height="10" x="80" y="140" style="fill:#CC0000"></rect>
<rect width="10" height="10" x="90" y="140" style="fill:#CC0000"></rect>
<rect width="10" height="10" x="100" y="140" style="fill:#CC0000"></rect>
<rect width="10" height="10" x="60" y="150" style="fill:#CC0000"></rect>
<rect width="10" height="10" x="70" y="150" style="fill:#CC0000"></rect>
<rect width="10" height="10" x="80" y="150" style="fill:#CC0000"></rect>
<rect width="10" height="10" x="90" y="150" style="fill:#CC0000"></rect>
<rect width="10" height="10" x="70" y="160" style="fill:#CC0000"></rect>
<rect width="10" height="10" x="80" y="160" style="fill:#CC0000"></rect>
</svg>


